<svg height="512pt" viewBox="0 -4 512.00441 512" width="512pt" xmlns="http://www.w3.org/2000/svg"><path d="m203.039062 388.414062h105.929688v78.71875h-105.929688zm0 0" fill="#2c2f38"/><path d="m356.878906 423.726562h-201.746094c-14.257812 0-27.632812 1.941407-35.921874-9.65625l-30.929688-43.308593h335.445312l-30.894531 43.308593c-8.324219 11.597657-21.699219 9.65625-35.953125 9.65625zm0 0" fill="#4c8056"/><path d="m172.140625 459.035156h167.726563c12.1875 0 22.066406 9.882813 22.066406 22.070313s-9.878906 22.070312-22.066406 22.070312h-167.726563c-12.1875 0-22.066406-9.882812-22.066406-22.070312s9.878906-22.070313 22.066406-22.070313zm0 0" fill="#4c8056"/><g fill="#a5a5a4"><path d="m26.488281 286.898438c-4.875 0-8.828125-3.953126-8.828125-8.828126v-17.65625c0-19.5 15.808594-35.308593 35.308594-35.308593h8.828125c4.875 0 8.828125 3.953125 8.828125 8.828125s-3.953125 8.828125-8.828125 8.828125h-8.828125c-9.75 0-17.652344 7.902343-17.652344 17.652343v17.65625c0 4.875-3.953125 8.828126-8.828125 8.828126zm0 0"/><path d="m26.488281 392.828125c-4.875 0-8.828125-3.949219-8.828125-8.824219v-52.96875c0-4.875 3.953125-8.824218 8.828125-8.824218s8.828125 3.949218 8.828125 8.824218v52.96875c0 4.875-3.953125 8.824219-8.828125 8.824219zm0 0"/><path d="m44.140625 445.796875c-4.875 0-8.824219-3.953125-8.824219-8.828125v-17.65625h-17.65625v17.65625c0 4.875-3.953125 8.828125-8.828125 8.828125s-8.82812475-3.953125-8.82812475-8.828125v-17.65625c0-9.75 7.90624975-17.65625 17.65624975-17.65625h17.65625c9.75 0 17.652344 7.90625 17.652344 17.65625v17.65625c0 4.875-3.953125 8.828125-8.828125 8.828125zm0 0"/></g><path d="m1.574219 419.542969c-1.558594-4.367188-1.96875-9.058594-1.191407-13.628907 2.324219-13.582031 14.671876-23.113281 28.398438-21.917968 13.726562 1.191406 24.242188 12.710937 24.1875 26.488281.003906 2.785156-.429688 5.550781-1.277344 8.203125-2.480468 6.996094-9.160156 11.617188-16.578125 11.472656h-17.339843c-7.085938.1875-13.542969-4.042968-16.199219-10.617187zm0 0" fill="#4fba6f"/><path d="m52.96875 304.554688c0 14.625-11.855469 26.480468-26.480469 26.480468-14.628906 0-26.48437475-11.855468-26.48437475-26.480468s11.85546875-26.484376 26.48437475-26.484376c14.625 0 26.480469 11.859376 26.480469 26.484376zm0 0" fill="#4fba6f"/><path d="m485.519531 286.898438c-4.875 0-8.824219-3.953126-8.824219-8.828126v-17.65625c0-9.75-7.90625-17.652343-17.65625-17.652343h-8.828124c-4.875 0-8.828126-3.953125-8.828126-8.828125s3.953126-8.828125 8.828126-8.828125h8.828124c19.5 0 35.308594 15.808593 35.308594 35.308593v17.65625c0 4.875-3.949218 8.828126-8.828125 8.828126zm0 0" fill="#a5a5a4"/><path d="m485.519531 392.828125c-4.875 0-8.824219-3.949219-8.824219-8.824219v-52.96875c0-4.875 3.949219-8.824218 8.824219-8.824218 4.878907 0 8.828125 3.949218 8.828125 8.824218v52.96875c0 4.875-3.949218 8.824219-8.828125 8.824219zm0 0" fill="#a5a5a4"/><path d="m503.175781 445.796875c-4.875 0-8.828125-3.953125-8.828125-8.828125v-17.65625h-17.652344v17.65625c0 4.875-3.953124 8.828125-8.828124 8.828125s-8.828126-3.953125-8.828126-8.828125v-17.65625c0-9.75 7.902344-17.65625 17.65625-17.65625h17.652344c9.753906 0 17.65625 7.90625 17.65625 17.65625v17.65625c0 4.875-3.953125 8.828125-8.828125 8.828125zm0 0" fill="#a5a5a4"/><path d="m460.609375 419.542969c-1.558594-4.367188-1.96875-9.058594-1.191406-13.628907 2.324219-13.582031 14.671875-23.113281 28.398437-21.917968 13.726563 1.191406 24.242188 12.710937 24.1875 26.488281.003906 2.785156-.429687 5.550781-1.28125 8.203125-2.476562 6.996094-9.15625 11.617188-16.578125 11.472656h-17.335937c-7.085938.1875-13.542969-4.042968-16.199219-10.617187zm0 0" fill="#4fba6f"/><path d="m512.003906 304.554688c0 14.625-11.855468 26.480468-26.484375 26.480468-14.625 0-26.480469-11.855468-26.480469-26.480468s11.855469-26.484376 26.480469-26.484376c14.628907 0 26.484375 11.859376 26.484375 26.484376zm0 0" fill="#4fba6f"/><path d="m185.382812 169.058594h141.242188v73.703125h-141.242188zm0 0" fill="#4c8056"/><path d="m149.277344 69.828125c-2.339844.007813-4.589844-.925781-6.238282-2.585937l-30.898437-30.898438c-3.453125-3.445312-3.460937-9.039062-.011719-12.492188 3.445313-3.457031 9.039063-3.460937 12.496094-.015624l30.894531 30.898437c2.542969 2.519531 3.308594 6.328125 1.941407 9.640625-1.367188 3.308594-4.601563 5.464844-8.183594 5.453125zm0 0" fill="#a5a5a4"/><path d="m123.589844 17.65625c0 9.75-7.902344 17.65625-17.65625 17.65625-9.75 0-17.652344-7.90625-17.652344-17.65625s7.902344-17.65234375 17.652344-17.65234375c9.753906 0 17.65625 7.90234375 17.65625 17.65234375zm0 0" fill="#f3d55b"/><path d="m362.730469 69.828125c-3.582031.011719-6.816407-2.144531-8.183594-5.453125-1.367187-3.3125-.601563-7.121094 1.941406-9.640625l30.898438-30.898437c2.234375-2.234376 5.488281-3.105469 8.542969-2.289063 3.050781.820313 5.433593 3.203125 6.253906 6.253906.816406 3.054688-.054688 6.308594-2.289063 8.542969l-30.898437 30.898438c-1.65625 1.667968-3.914063 2.601562-6.265625 2.585937zm0 0" fill="#a5a5a4"/><path d="m423.726562 17.65625c0 9.75-7.902343 17.65625-17.652343 17.65625s-17.65625-7.90625-17.65625-17.65625 7.90625-17.65234375 17.65625-17.65234375 17.652343 7.90234375 17.652343 17.65234375zm0 0" fill="#f3d55b"/><path d="m88.28125 260.414062c-12.964844-.007812-24.015625-9.398437-26.117188-22.191406-2.097656-12.792968 5.371094-25.226562 17.652344-29.378906 12.28125-4.148438 25.761719 1.199219 31.855469 12.644531zm0 0" fill="#4fba6f"/><path d="m400.335938 221.488281c6.09375-11.445312 19.574218-16.792969 31.855468-12.644531 12.28125 4.152344 19.75 16.585938 17.652344 29.378906-2.097656 12.792969-13.152344 22.183594-26.117188 22.191406zm0 0" fill="#4fba6f"/><path d="m247.175781 17.65625h17.65625c73.128907 0 132.414063 59.285156 132.414063 132.414062h-282.484375c0-73.128906 59.285156-132.414062 132.414062-132.414062zm0 0" fill="#7ed09e"/><path d="m114.761719 145.65625h282.484375c9.75 0 17.65625 7.90625 17.65625 17.65625s-7.90625 17.65625-17.65625 17.65625h-282.484375c-9.75 0-17.652344-7.90625-17.652344-17.65625s7.902344-17.65625 17.652344-17.65625zm0 0" fill="#4fba6f"/><path d="m203.039062 114.761719c-4.875 0-8.828124-3.953125-8.828124-8.828125v-26.484375c0-4.875 3.953124-8.828125 8.828124-8.828125s8.828126 3.953125 8.828126 8.828125v26.484375c0 4.875-3.953126 8.828125-8.828126 8.828125zm0 0" fill="#2c2f38"/><path d="m308.96875 114.761719c-4.875 0-8.828125-3.953125-8.828125-8.828125v-26.484375c0-4.875 3.953125-8.828125 8.828125-8.828125s8.828125 3.953125 8.828125 8.828125v26.484375c0 4.875-3.953125 8.828125-8.828125 8.828125zm0 0" fill="#2c2f38"/><path d="m88.28125 344.277344v-83.863282c0-24.375 19.761719-44.136718 44.136719-44.136718h247.171875c24.378906 0 44.136718 19.761718 44.136718 44.136718v83.863282zm0 0" fill="#7ed09e"/><path d="m88.28125 339.863281h335.445312c9.753907 0 17.65625 7.90625 17.65625 17.65625s-7.902343 17.65625-17.65625 17.65625h-335.445312c-9.75 0-17.65625-7.90625-17.65625-17.65625s7.90625-17.65625 17.65625-17.65625zm0 0" fill="#4fba6f"/><path d="m185.382812 251.589844h141.242188c14.625 0 26.484375 11.855468 26.484375 26.480468s-11.859375 26.484376-26.484375 26.484376h-141.242188c-14.625 0-26.480468-11.859376-26.480468-26.484376s11.855468-26.480468 26.480468-26.480468zm0 0" fill="#e6e7e8"/><path d="m132.417969 278.070312c0 4.875-3.953125 8.828126-8.828125 8.828126s-8.828125-3.953126-8.828125-8.828126 3.953125-8.828124 8.828125-8.828124 8.828125 3.953124 8.828125 8.828124zm0 0" fill="#2c2f38"/><path d="m397.246094 278.070312c0 4.875-3.953125 8.828126-8.828125 8.828126s-8.828125-3.953126-8.828125-8.828126 3.953125-8.828124 8.828125-8.828124 8.828125 3.953124 8.828125 8.828124zm0 0" fill="#2c2f38"/><path d="m211.867188 313.382812c-4.875 0-8.828126-3.953124-8.828126-8.828124v-52.964844c0-4.875 3.953126-8.828125 8.828126-8.828125s8.828124 3.953125 8.828124 8.828125v52.964844c0 4.875-3.953124 8.828124-8.828124 8.828124zm0 0" fill="#ff5364"/></svg>